PathFileType	4	(X/Y/Z)	Kaydara	
DataRate	CameraRate	NumFrames	NumMarkers	Units	OrigDataRate	OrigDataStartFrame	OrigNumFrames	
60.00	60.00	4	74	mm	60.00	552	200	
Frame#	Time	Z_lasi			Z_rasi			Z_rpsi			Z_lpsi			Z_fneck			Z_bneck			Z_fhead			Z_rhead			Z_lhead			Z_rshld			Z_relbtop			Z_relbext			Z_relblow			Z_rwrext			Z_rwrtop			Z_rwrlow			Z_lshld			Z_lelbext			Z_lelblow			Z_lelbtop			Z_lwrext			Z_lwrtop			Z_lwrlow			Z_rtopleg			Z_ltopleg			Z_rkneefr			Z_rkneebk			Z_rkneeis			Z_lkneefr			Z_lknssbk			Z_lkneeis			Z_rankfr			Z_rankis			Z_rankbk			Z_lankfr			Z_lankbk			Z_lankis			A_lasi			A_rasi			A_rpsi			A_lpsi			A_fneck			A_bneck			A_fhead			A_rhead			A_lhead			A_rshld			A_relbtop			A_relbext			A_relblow			A_rwrext			A_rwrtop			A_rwrlow			A_lshld			A_lelbext			A_lelblow			A_lelbtop			A_lwrext			A_lwrtop			A_lwrlow			A_rtopleg			A_ltopleg			A_rkneefr			A_rkneebk			A_rkneeis			A_lkneefr			A_lknssbk			A_lkneeis			A_rankfr			A_rankis			A_rankbk			A_lankfr			A_lankbk			A_lankis			
		X1	Y1	Z1	X2	Y2	Z2	X3	Y3	Z3	X4	Y4	Z4	X5	Y5	Z5	X6	Y6	Z6	X7	Y7	Z7	X8	Y8	Z8	X9	Y9	Z9	X10	Y10	Z10	X11	Y11	Z11	X12	Y12	Z12	X13	Y13	Z13	X14	Y14	Z14	X15	Y15	Z15	X16	Y16	Z16	X17	Y17	Z17	X18	Y18	Z18	X19	Y19	Z19	X20	Y20	Z20	X21	Y21	Z21	X22	Y22	Z22	X23	Y23	Z23	X24	Y24	Z24	X25	Y25	Z25	X26	Y26	Z26	X27	Y27	Z27	X28	Y28	Z28	X29	Y29	Z29	X30	Y30	Z30	X31	Y31	Z31	X32	Y32	Z32	X33	Y33	Z33	X34	Y34	Z34	X35	Y35	Z35	X36	Y36	Z36	X37	Y37	Z37	X38	Y38	Z38	X39	Y39	Z39	X40	Y40	Z40	X41	Y41	Z41	X42	Y42	Z42	X43	Y43	Z43	X44	Y44	Z44	X45	Y45	Z45	X46	Y46	Z46	X47	Y47	Z47	X48	Y48	Z48	X49	Y49	Z49	X50	Y50	Z50	X51	Y51	Z51	X52	Y52	Z52	X53	Y53	Z53	X54	Y54	Z54	X55	Y55	Z55	X56	Y56	Z56	X57	Y57	Z57	X58	Y58	Z58	X59	Y59	Z59	X60	Y60	Z60	X61	Y61	Z61	X62	Y62	Z62	X63	Y63	Z63	X64	Y64	Z64	X65	Y65	Z65	X66	Y66	Z66	X67	Y67	Z67	X68	Y68	Z68	X69	Y69	Z69	X70	Y70	Z70	X71	Y71	Z71	X72	Y72	Z72	X73	Y73	Z73	X74	Y74	Z74	

51	9.183	-263.46487	1081.98898	667.15797	-302.64462	1093.36365	464.86950	-132.63472	1115.93430	391.50700	-76.25968	1098.72009	629.13811	-261.81067	1440.66055	549.31393	-155.42167	1517.99149	562.16949	-352.40257	1634.75830	475.45238	-184.48292	1647.12646	479.24305	-250.98064	1651.07086	611.86562	-199.70501	1441.87103	350.63881	-145.86654	1126.70380	253.29830	-136.61169	1104.98558	309.61672	-219.33149	1141.31699	274.79479	-271.23793	911.71715	230.44245	-308.16236	931.19919	249.03141	-297.29712	924.60808	291.36984	-154.42660	1443.20160	743.36128	-115.97062	1125.62866	753.76129	-180.21181	1149.66621	812.14546	-112.18216	1145.90919	822.41821	-261.72760	900.16541	796.09566	-254.45324	893.19672	842.32681	-208.43365	884.42276	838.49739	-182.84155	927.25227	340.68714	-177.06608	894.74777	705.13504	-251.63618	422.49374	393.37032	-180.55349	451.88869	344.87942	-189.32062	432.48470	468.48286	-214.49162	447.87029	666.88454	-108.07245	474.15760	654.04175	-203.28335	444.06094	574.16538	-204.67226	180.57222	373.36239	-181.95354	176.60938	435.85281	-128.36782	174.32806	366.69052	-152.01355	164.87402	667.69585	-94.94514	165.94702	611.54236	-172.78084	173.72438	597.53410	-975.54230	1031.65428	462.50046	-962.91832	1036.20529	622.95959	-1120.24765	1039.27467	644.33815	-1099.56429	1044.20685	462.42722	-1023.82057	1385.41855	560.74081	-1164.94850	1409.78287	551.12900	-984.91821	1604.01688	567.16938	-1126.87881	1553.40942	650.08430	-1125.61386	1553.22205	486.93241	-1111.47270	1349.73511	737.32216	-1091.21056	1055.66803	763.96614	-1150.00572	1047.99484	736.73927	-1084.00581	1045.54337	705.99747	-1059.83002	809.67850	785.51163	-1017.19986	822.72911	776.36147	-1023.97781	823.78052	737.53586	-1069.32159	1355.35477	380.89943	-1100.54825	1042.71187	375.65128	-1029.47884	1052.85637	384.24217	-1063.95241	1049.17923	342.30888	-1003.84613	826.03706	375.96882	-1014.61990	825.55969	336.37390	-969.99649	836.63658	336.88049	-1069.58809	875.73601	723.91449	-1039.96185	889.36699	386.22494	-1031.15631	451.19034	632.79213	-1136.52161	485.91167	681.56708	-1121.09543	485.07416	562.77580	-1019.73061	463.97057	503.02734	-1103.89244	478.97018	406.60988	-1127.37167	479.49432	530.84621	-1098.93730	165.53665	658.37585	-1134.36577	162.13461	593.66882	-1179.60442	153.09049	664.61273	-1069.45404	166.42111	455.58964	-1130.04333	166.58764	419.59152	-1129.50523	173.31089	508.79436 
52	9.200	-263.05738	1081.85867	666.81061	-302.53174	1093.09715	464.66564	-132.41361	1115.73517	391.26572	-75.95921	1098.60268	628.81832	-261.44249	1440.69550	548.67714	-155.02288	1518.07205	561.41033	-352.38060	1634.48990	475.04749	-184.48418	1647.28714	478.65028	-250.87584	1650.99442	611.35006	-198.83802	1441.49078	349.93729	-144.25274	1125.67886	254.62708	-135.67044	1104.39140	311.20470	-218.09515	1140.43076	274.98672	-269.16218	910.32707	231.99892	-306.24830	929.71268	250.05627	-296.09716	923.78632	292.55716	-154.19932	1443.87024	742.72873	-113.65703	1126.92871	753.93875	-178.27265	1150.57762	811.86432	-110.21931	1146.90361	822.54105	-260.25644	901.56990	791.13976	-254.65391	894.75418	837.86751	-208.80920	885.93071	835.17776	-182.76352	927.09290	340.43545	-176.93439	894.72504	704.94362	-251.68915	422.41371	393.33336	-180.66277	451.79302	344.73923	-189.25411	432.45598	468.35899	-214.63333	447.87750	666.84715	-108.21693	474.15749	653.89557	-203.55833	444.06868	574.13799	-204.63741	180.55538	373.34827	-181.93504	176.61119	435.85423	-128.34704	174.27971	366.70868	-152.07510	164.85785	667.65892	-94.96778	165.98219	611.40541	-172.87926	173.72240	597.55234	-976.01219	1032.36168	462.38956	-963.70827	1036.90819	622.79205	-1121.87172	1039.41994	644.75082	-1099.80927	1044.18922	462.16751	-1024.29138	1385.38986	560.95207	-1165.78171	1410.73929	551.45630	-983.90549	1603.17871	566.67835	-1126.44264	1554.82040	650.10468	-1125.36705	1553.52768	486.97922	-1111.87660	1350.09308	737.35481	-1091.69083	1055.95955	762.46773	-1149.81804	1048.37517	733.83522	-1083.47008	1046.27846	704.77409	-1061.21170	809.72267	783.41354	-1018.30589	822.76627	775.45448	-1023.82629	823.91296	737.02515	-1069.76257	1356.00586	381.61850	-1100.50240	1043.43979	376.77414	-1029.53186	1053.60031	385.10914	-1064.06189	1049.67827	343.12065	-1004.32350	826.28265	376.19957	-1015.06638	825.93689	337.23606	-970.49347	837.00340	337.84786	-1069.98703	875.48058	723.22052	-1039.88022	889.40010	386.48869	-1030.56259	451.36009	632.79228	-1136.06415	485.98515	681.83624	-1120.72189	485.24437	562.99961	-1019.55963	463.95412	503.16059	-1103.58818	479.05491	406.70105	-1127.12379	479.57035	530.85545	-1098.78616	165.61020	658.48595	-1134.28741	162.24388	593.74187	-1179.47525	153.24859	664.73930	-1069.40010	166.45679	455.62721	-1130.02678	166.60883	419.57336	-1129.51630	173.38207	508.80661 
53	9.217	-262.70840	1081.73912	666.50742	-302.47501	1092.65846	464.55269	-132.28856	1115.58853	391.09352	-75.72080	1098.51074	628.57719	-261.06512	1440.66986	548.01186	-154.69058	1518.09189	560.69786	-352.36904	1634.19922	474.60449	-184.50634	1647.37457	477.97264	-250.72372	1650.84549	610.63274	-197.97834	1440.82642	349.23042	-143.26001	1124.53537	255.74780	-134.91300	1103.56361	312.48402	-217.18885	1139.20227	275.80246	-267.23536	908.75610	233.22546	-304.49406	927.96829	251.00227	-294.50138	922.28691	293.61856	-153.74555	1444.12140	741.95313	-111.85705	1127.81143	753.52760	-176.73357	1151.02127	811.33415	-108.64401	1147.53342	822.15843	-259.49728	902.81052	787.23038	-254.60196	895.71701	833.83827	-208.62949	886.66611	831.86638	-182.68524	927.04895	340.24620	-176.83479	894.68445	704.79927	-251.78211	422.36511	393.22823	-180.79081	451.74911	344.53186	-189.12144	432.39765	468.12481	-214.79715	447.84637	666.83762	-108.38728	474.10995	653.91151	-203.81065	444.02485	574.14970	-204.65063	180.54392	373.35011	-181.86932	176.66286	435.76561	-128.31271	174.26096	366.64238	-152.12522	164.83044	667.64389	-94.98961	165.98057	611.39454	-172.94809	173.67672	597.49695	-976.55518	1033.12637	462.24194	-964.54849	1038.17101	622.83150	-1122.74231	1039.71024	644.33624	-1100.15343	1044.25865	461.80870	-1024.66652	1385.41046	561.10462	-1166.39610	1411.93512	551.87572	-983.06877	1602.51617	566.23268	-1125.92850	1556.06110	650.06363	-1125.15846	1554.06296	487.03194	-1111.77734	1350.91278	737.50168	-1092.27478	1056.56723	761.53397	-1149.49692	1049.11850	731.28822	-1082.98035	1046.98593	704.07974	-1062.45010	810.27344	781.89316	-1019.33060	823.38013	774.96620	-1023.69827	824.41261	736.86493	-1069.69543	1356.73309	382.12482	-1100.54054	1044.07974	377.18166	-1029.58618	1054.18472	385.63721	-1064.08081	1050.36453	343.60340	-1004.47281	826.66008	376.43833	-1015.26550	826.43234	337.89757	-970.64453	837.38785	338.56079	-1070.47951	875.51628	722.92458	-1039.68994	889.42238	386.57890	-1029.86671	451.58924	633.09883	-1135.49850	486.10794	681.92963	-1119.93141	485.49313	563.18554	-1019.21669	464.02142	503.46188	-1103.05016	479.14288	406.81564	-1126.66397	479.66164	530.94769	-1098.53287	165.74177	658.54080	-1134.01382	162.38405	593.88985	-1179.30832	153.56827	664.84619	-1069.24606	166.49542	455.64865	-1129.91982	166.68255	419.53468	-1129.33632	173.43601	508.78246 
54	9.233	-262.51381	1081.69899	666.29547	-302.44610	1092.31354	464.39281	-132.16562	1115.45898	390.92773	-75.55626	1098.40691	628.34225	-260.61607	1440.55359	547.34688	-154.27416	1518.05511	559.79809	-352.35931	1633.80020	473.96526	-184.51792	1647.37915	477.08046	-250.49833	1650.73395	609.95636	-197.31701	1440.03784	348.47340	-142.85171	1123.35442	256.53908	-134.20718	1102.52304	313.30433	-216.74454	1137.67487	276.93718	-265.31088	906.87538	234.08989	-302.68393	925.88257	251.89499	-292.36311	920.00290	294.47020	-153.23776	1444.10614	741.31569	-110.61757	1128.14461	752.78282	-175.60760	1151.09604	810.30083	-107.42317	1147.71530	821.30775	-258.86423	903.50151	783.98407	-254.10406	895.79124	830.51216	-207.94977	887.12585	828.52074	-182.59048	927.06169	340.05791	-176.79338	894.67758	704.66843	-251.97725	422.29069	393.13248	-181.05225	451.67583	344.23485	-189.00944	432.30145	467.73014	-214.83202	447.79800	666.78200	-108.60769	474.06803	654.00581	-203.95796	443.98987	574.17946	-204.64903	180.52475	373.28892	-181.86735	176.64539	435.68558	-128.32159	174.25343	366.55361	-152.17779	164.75275	667.66052	-95.06800	165.98352	611.43177	-172.99891	173.64483	597.53036	-977.25441	1033.93456	462.49077	-965.68161	1039.13620	622.96299	-1123.89908	1039.75113	643.94180	-1100.75775	1044.38576	461.44539	-1024.85535	1385.30273	561.24966	-1166.64276	1412.67593	552.13875	-982.46986	1601.90079	566.15414	-1125.70457	1556.71661	650.17555	-1124.93942	1554.49738	487.05650	-1111.54686	1351.94458	737.91595	-1092.96951	1057.46262	761.25137	-1149.27719	1050.07645	729.47929	-1082.59895	1048.14873	704.29001	-1063.28659	810.93285	781.23520	-1020.01984	824.12048	775.35172	-1023.45932	825.05829	736.66000	-1069.18358	1357.47833	382.49908	-1100.46913	1044.74632	377.18575	-1029.61365	1054.73030	385.94494	-1063.94279	1050.99968	343.72780	-1004.56589	826.54709	376.85360	-1015.02052	826.87706	338.15445	-970.46341	837.99881	338.94760	-1070.84427	875.93620	722.83524	-1039.58527	889.50203	386.64185	-1029.03015	451.91212	633.26996	-1134.50432	486.15383	681.72325	-1118.82843	485.69252	563.05481	-1018.23624	464.19933	503.62247	-1102.35283	479.24515	406.96346	-1125.91225	479.73850	531.18320	-1098.24783	165.87141	658.61237	-1133.73230	162.47660	594.00780	-1179.04167	153.83986	664.79622	-1069.04976	166.49866	455.67364	-1129.70169	166.81904	419.61548	-1129.21707	173.54553	508.84930 
